<?xml version="1.0" standalone="no"?><!DOCTYPE svg PUBLIC "-//W3C//DTD SVG 1.1//EN" "http://www.w3.org/Graphics/SVG/1.1/DTD/svg11.dtd"><svg t="1611465164663" class="icon" viewBox="0 0 1024 1024" version="1.1" xmlns="http://www.w3.org/2000/svg" p-id="3848" xmlns:xlink="http://www.w3.org/1999/xlink" width="200" height="200"><defs><style type="text/css"></style></defs><path d="M453.8368 0c160.617813 0 290.816 130.198187 290.816 290.816 0 105.71776-56.415573 198.260053-140.765867 249.173333l0.109227 0.04096h-0.136533c-23.524693 13.626027-47.322453 23.893333-71.406934 30.76096-20.589227 5.870933-45.110613 10.840747-71.72096 10.840747h-4.846933c-193.344853 0-351.204693 151.9616-360.6528 342.971733L27.306667 924.59008c7.318187-176.073387 120.777387-324.717227 278.063786-383.658667C220.132693 490.222933 163.0208 397.175467 163.0208 290.816 163.0208 130.198187 293.218987 0 453.8368 0z m0 72.704c-120.46336 0-218.112 97.64864-218.112 218.112s97.64864 218.112 218.112 218.112S671.9488 411.27936 671.9488 290.816 574.30016 72.704 453.8368 72.704zM967.611733 290.816v72.704h-126.020266v72.704h126.020266v72.704h-126.020266v125.064533c87.149227 17.681067 153.06752 93.825707 155.060906 185.71264l0.04096 4.273494c0 107.06944-86.807893 193.877333-193.877333 193.877333s-193.877333-86.807893-193.877333-193.877333c0-95.491413 69.044907-174.871893 159.935146-190.91456l0.013654-342.248107H967.611733zM802.816 693.111467a130.8672 130.8672 0 1 0 0 261.7344 130.8672 130.8672 0 0 0 0-261.7344z" p-id="3849"></path></svg>