<?xml version="1.0" standalone="no"?><!DOCTYPE svg PUBLIC "-//W3C//DTD SVG 1.1//EN" "http://www.w3.org/Graphics/SVG/1.1/DTD/svg11.dtd"><svg t="1611475953202" class="icon" viewBox="0 0 1024 1024" version="1.1" xmlns="http://www.w3.org/2000/svg" p-id="34503" xmlns:xlink="http://www.w3.org/1999/xlink" width="200" height="200"><defs><style type="text/css"></style></defs><path d="M950.784 977.92l57.856-61.952c8.704-9.216 12.8-20.992 12.288-33.28-0.512-12.288-5.632-24.064-14.848-32.256l-152.576-142.848 38.912-41.472c9.216-9.728 13.824-22.528 13.312-35.328-0.512-13.312-6.144-25.6-15.872-34.816l-47.616-44.544c-8.704-8.192-20.48-12.8-33.792-12.8-14.336 0-27.648 5.632-36.352 14.848L573.44 765.952c-9.216 9.728-13.824 22.016-13.312 35.328 0.512 13.312 6.144 25.6 15.872 34.304l47.616 44.544c9.216 8.704 20.992 13.312 33.792 13.312 13.824 0 26.624-5.632 36.352-15.872l38.912-41.472 152.576 142.848c8.704 8.192 19.968 12.8 31.744 12.8v14.848-14.848c12.8 1.024 25.088-4.608 33.792-13.824zM1015.808 21.504c-4.608-4.608-11.776-6.656-17.92-4.608L688.128 112.64c-3.072 1.024-5.632 2.56-7.68 5.12l-410.624 448-18.944-19.968c-8.704-9.728-22.016-14.848-36.352-14.848-12.8 0-25.088 4.608-33.792 12.8l-47.616 44.544c-19.968 18.432-20.992 50.176-2.048 70.144l38.912 41.472-152.576 142.848c-9.216 8.192-14.336 19.968-14.848 32.256-0.512 12.288 4.096 24.064 12.288 33.28l57.856 61.952c8.704 9.216 20.992 14.848 33.792 14.848 11.776 0 23.04-4.608 31.744-12.288l153.088-143.36 38.912 41.472c9.216 9.728 22.528 15.872 36.352 15.872 12.8 0 24.576-4.608 33.792-13.312l47.616-44.544c9.728-9.216 15.36-21.504 15.872-34.304 0.512-13.312-4.096-25.6-13.312-35.328l-15.36-16.384 471.04-383.488c2.56-2.048 4.608-4.608 5.632-7.68l109.056-310.272c1.024-8.192-0.512-14.848-5.12-19.968zM450.56 242.688L343.552 125.952c-2.048-2.56-4.608-4.096-7.68-5.12L26.112 25.088c-1.536-0.512-3.584-1.024-5.12-1.024-4.608 0-9.216 2.048-12.8 5.632C3.584 34.304 2.048 41.472 4.096 47.616L113.152 358.4c1.024 3.072 3.072 5.632 5.632 7.68l115.712 94.208L450.56 242.688z" p-id="34504"></path></svg>