<?xml version="1.0" standalone="no"?><!DOCTYPE svg PUBLIC "-//W3C//DTD SVG 1.1//EN" "http://www.w3.org/Graphics/SVG/1.1/DTD/svg11.dtd"><svg t="1611476111333" class="icon" viewBox="0 0 1024 1024" version="1.1" xmlns="http://www.w3.org/2000/svg" p-id="39297" xmlns:xlink="http://www.w3.org/1999/xlink" width="200" height="200"><defs><style type="text/css"></style></defs><path d="M452.0192 357.7088c39.9872 20.8384 70.0416 50.3296 77.4144 96.768 6.4512 40.0128-4.9664 76.6976-25.088 110.7968-21.1712 35.9424-42.752 71.7056-64.128 107.4688A99484.5184 99484.5184 0 0 1 261.376 973.4144c-15.104 25.4208-44.416 38.7072-69.6832 30.592-20.992-6.656-35.2-20.992-41.856-42.0352-4.0448-13.0816-0.7168-25.2416 6.272-36.864 54.016-90.3168 107.8528-180.8384 161.664-271.36 9.4208-15.6672 18.816-31.3344 27.4688-46.08-19.8912-10.496-39.2448-20.8128-59.904-31.872l-0.768 0.768a57.6256 57.6256 0 0 0-2.7392 3.072c-47.9232 63.0528-95.6672 126.2848-143.616 189.5168-15.6416 20.6592-44.5952 25.6256-65.6128 10.7008a45.9776 45.9776 0 0 1-11.2384-65.0752c63.0528-91.0592 126.6432-181.9392 189.4912-273.2032 17.536-25.4208 35.0464-50.5088 59.392-69.8624 44.2112-35.0208 91.5968-39.9872 141.7472-14.0032z m380.1088 412.1856a117.632 117.632 0 0 1 117.0432 118.3488 118.0416 118.0416 0 0 1-118.144 117.6064c-64.7168-0.1792-117.8112-53.4528-117.8112-118.1696 0-65.2544 53.2736-117.9648 118.912-117.7856zM698.112 82.1248c21.1968 53.632-4.4288 119.808-71.168 141.2096 3.1488 2.2016 5.5296 4.0448 8.1152 5.7088 73.3696 50.8672 113.7408 120.7296 117.7856 210.1504 1.664 37.0432-7.3728 72.6272-23.7824 105.8048-7.7312 15.488-18.432 28.3904-36.6848 32.256-2.0224 0.384-4.224 0.7424-6.4512 0.9216-14.9248 0.5632-18.048-1.8432-19.712-16.2304-4.9664-43.6736-16.0512-85.504-34.6624-125.3376-37.6064-79.8208-98.816-129.2288-186.368-145.9968-69.504-13.2864-139.7248-20.48-210.1504-23.7824-41.472-1.8432-82.944-2.4064-124.2368-3.328-27.8272-0.7168-43.52-25.0624-31.8976-50.1248 10.88-23.2448 31.1552-33.536 54.9376-36.6848 39.2704-4.992 78.5152-10.496 118.1696-12.3648 53.8112-2.56 108.032-3.1232 162.048-2.0224 28.0064 0.5632 56.0128 6.272 84.0448 9.7792 1.664 0.1792 3.6864 0.3584 6.9888 0.9216-16.9472-33.536-18.7904-66.7392-2.2016-99.7376 12.7232-25.6 33.1776-43.136 60.1088-52.5312 54.016-19.2 114.2784 8.2944 135.1168 61.3888z" p-id="39298"></path></svg>