<?xml version="1.0" standalone="no"?><!DOCTYPE svg PUBLIC "-//W3C//DTD SVG 1.1//EN" "http://www.w3.org/Graphics/SVG/1.1/DTD/svg11.dtd"><svg t="1611475151102" class="icon" viewBox="0 0 1024 1024" version="1.1" xmlns="http://www.w3.org/2000/svg" p-id="22879" xmlns:xlink="http://www.w3.org/1999/xlink" width="200" height="200"><defs><style type="text/css"></style></defs><path d="M512 0A409.6 409.6 0 0 0 102.4 409.6v614.4l136.533333-153.6 136.533334 153.6 136.533333-153.6 136.533333 153.6 136.533334-153.6 136.533333 153.6V409.6A409.6 409.6 0 0 0 512 0zM332.8 537.6a102.4 102.4 0 1 1 102.4-102.4 102.4 102.4 0 0 1-102.4 102.4z m358.4 0a102.4 102.4 0 1 1 102.4-102.4 102.4 102.4 0 0 1-102.4 102.4z" p-id="22880"></path></svg>